<svg width="120" height="100" viewBox="0 0 120 100" fill="none" xmlns="http://www.w3.org/2000/svg">
<g id="tringels">
    <g id="light">
        <rect width="120" height="100" fill="white"/>
        <path id="light" d="M100.322 48.3089C101.565 49.0938 101.565 50.9062 100.322 51.6911L58.0679 78.3736C56.7361 79.2146 55 78.2576 55 76.6826L55 23.3175C55 21.7424 56.7361 20.7854 58.0679 21.6264L100.322 48.3089Z" fill="#F1BB2E" fill-opacity="0.6"/>
    </g>
    <g id="dark">
        <path id="dark 2" d="M74.2439 48.0552C75.5096 48.8367 75.5096 50.6772 74.2439 51.4587L31.3007 77.9737C29.9683 78.7964 28.25 77.8379 28.25 76.2719L28.25 23.242C28.25 21.676 29.9683 20.7175 31.3007 21.5402L74.2439 48.0552Z" fill="#910BFA" fill-opacity="0.6"/>
        <path id="Dark 1" d="M74.2439 48.0552C75.5096 48.8367 75.5096 50.6772 74.2439 51.4587L31.3007 77.9737C29.9683 78.7964 28.25 77.8379 28.25 76.2719L28.25 23.242C28.25 21.676 29.9683 20.7175 31.3007 21.5402L74.2439 48.0552Z" fill="#FF78A9" fill-opacity="0.6"/>
    </g>
</g>
</svg>
